<svg width="40" height="40" viewBox="0 0 40 40" fill="none" xmlns="http://www.w3.org/2000/svg">
<g filter="url(#filter0_d_19382_35988)">
<path d="M12.125 18.8764H25.4675L21.3837 13.9714C21.1928 13.7417 21.1009 13.4455 21.1284 13.148C21.1558 12.8505 21.3003 12.5761 21.53 12.3852C21.7597 12.1942 22.0559 12.1023 22.3534 12.1298C22.6509 12.1572 22.9253 12.3017 23.1163 12.5314L28.7412 19.2814C28.7799 19.3346 28.8137 19.3911 28.8425 19.4502C28.8425 19.5064 28.8425 19.5402 28.9212 19.5964C28.9722 19.7254 28.9989 19.8627 29 20.0014C28.9989 20.1401 28.9722 20.2774 28.9212 20.4064C28.9212 20.4627 28.9213 20.4964 28.8425 20.5527C28.8137 20.6118 28.7799 20.6682 28.7412 20.7214L23.1163 27.4714C23.0105 27.5984 22.878 27.7005 22.7283 27.7705C22.5786 27.8405 22.4153 27.8767 22.25 27.8764C21.9871 27.8769 21.7324 27.7854 21.53 27.6177C21.4161 27.5232 21.3219 27.4072 21.2529 27.2763C21.1839 27.1454 21.1414 27.0022 21.1278 26.8549C21.1142 26.7075 21.1298 26.5589 21.1737 26.4176C21.2177 26.2763 21.289 26.1451 21.3837 26.0314L25.4675 21.1264H12.125C11.8266 21.1264 11.5405 21.0079 11.3295 20.7969C11.1185 20.5859 11 20.2998 11 20.0014C11 19.703 11.1185 19.4169 11.3295 19.2059C11.5405 18.9949 11.8266 18.8764 12.125 18.8764Z" fill="white"/>
</g>
<defs>
<filter id="filter0_d_19382_35988" x="9" y="10.125" width="22" height="19.75" filterUnits="userSpaceOnUse" color-interpolation-filters="sRGB">
<feFlood flood-opacity="0" result="BackgroundImageFix"/>
<feColorMatrix in="SourceAlpha" type="matrix" values="0 0 0 0 0 0 0 0 0 0 0 0 0 0 0 0 0 0 127 0" result="hardAlpha"/>
<feOffset/>
<feGaussianBlur stdDeviation="1"/>
<feComposite in2="hardAlpha" operator="out"/>
<feColorMatrix type="matrix" values="0 0 0 0 0 0 0 0 0 0 0 0 0 0 0 0 0 0 0.15 0"/>
<feBlend mode="normal" in2="BackgroundImageFix" result="effect1_dropShadow_19382_35988"/>
<feBlend mode="normal" in="SourceGraphic" in2="effect1_dropShadow_19382_35988" result="shape"/>
</filter>
</defs>
</svg>
