<svg width="30" height="30" viewBox="0 0 30 30" fill="none" xmlns="http://www.w3.org/2000/svg">
<path d="M15.0027 23C13.8969 23 12.8569 22.7902 11.8827 22.3707C10.909 21.9505 10.0619 21.3804 9.34133 20.6604C8.62074 19.9404 8.05037 19.0942 7.63022 18.1218C7.21007 17.1493 7 16.1096 7 15.0027C7 13.8957 7.21007 12.8557 7.63022 11.8827C8.04978 10.909 8.61896 10.0619 9.33778 9.34133C10.0566 8.62074 10.9031 8.05037 11.8773 7.63022C12.8516 7.21007 13.8916 7 14.9973 7C16.1031 7 17.1431 7.21007 18.1173 7.63022C19.091 8.04978 19.9381 8.61926 20.6587 9.33867C21.3793 10.0581 21.9496 10.9046 22.3698 11.8782C22.7899 12.8519 23 13.8916 23 14.9973C23 16.1031 22.7902 17.1431 22.3707 18.1173C21.9511 19.0916 21.381 19.9387 20.6604 20.6587C19.9399 21.3787 19.0936 21.949 18.1218 22.3698C17.1499 22.7905 16.1102 23.0006 15.0027 23ZM15 22.1111C15.8681 22.1111 16.7037 21.9588 17.5067 21.6542C18.3108 21.349 19.0412 20.9064 19.6978 20.3262L9.67378 10.3031C9.10489 10.9591 8.66519 11.6889 8.35467 12.4924C8.04415 13.296 7.88889 14.1319 7.88889 15C7.88889 16.9852 8.57778 18.6667 9.95556 20.0444C11.3333 21.4222 13.0148 22.1111 15 22.1111ZM20.3262 19.6969C20.907 19.0409 21.3493 18.3111 21.6533 17.5076C21.9585 16.704 22.1111 15.8681 22.1111 15C22.1111 13.0148 21.4222 11.3333 20.0444 9.95556C18.6667 8.57778 16.9852 7.88889 15 7.88889C14.1283 7.88889 13.2886 8.03852 12.4809 8.33778C11.6738 8.63644 10.9479 9.08178 10.3031 9.67378L20.3262 19.6969Z" fill="white"/>
</svg>
