<svg width="55" height="55" viewBox="0 0 55 55" fill="none" xmlns="http://www.w3.org/2000/svg">
<path fill-rule="evenodd" clip-rule="evenodd" d="M20.7441 20.8281C21.0995 20.6121 21.4006 20.3252 21.6262 19.9876L22.6554 18.4279C22.8868 18.0724 23.2054 17.775 23.5842 17.5606C23.963 17.3463 24.3909 17.2214 24.8316 17.1965C27.0162 17.0855 29.2056 17.0855 31.3902 17.1965C31.8309 17.2214 32.2587 17.3463 32.6376 17.5606C33.0164 17.775 33.335 18.0724 33.5664 18.4279L34.5968 19.9876C34.8223 20.3251 35.1232 20.6119 35.4783 20.8279C35.8335 21.0439 36.2343 21.1838 36.6527 21.2379C37.1274 21.3017 37.6012 21.3708 38.0742 21.4453C39.3929 21.6527 40.3331 22.7514 40.3331 24.016V34.0022C40.3331 34.7094 40.036 35.3877 39.507 35.8878C38.9781 36.3879 38.2606 36.6688 37.5126 36.6688H18.7092C17.9611 36.6688 17.2437 36.3879 16.7148 35.8878C16.1858 35.3877 15.8887 34.7094 15.8887 34.0022V24.016C15.8887 22.7514 16.8276 21.6527 18.1476 21.4453C18.6202 21.3707 19.0928 21.3019 19.5691 21.2379C19.9877 21.184 20.3888 21.0441 20.7441 20.8281ZM32.4321 31.2123C33.5782 30.0662 34.222 28.5118 34.222 26.8911C34.222 25.2703 33.5782 23.7159 32.4321 22.5699C31.286 21.4238 29.7317 20.7799 28.1109 20.7799C26.4901 20.7799 24.9357 21.4238 23.7897 22.5699C22.6436 23.7159 21.9998 25.2703 21.9998 26.8911C21.9998 28.5118 22.6436 30.0662 23.7897 31.2123C24.9357 32.3583 26.4901 33.0022 28.1109 33.0022C29.7317 33.0022 31.286 32.3583 32.4321 31.2123Z" fill="#212121"/>
<path d="M21.6262 19.9876L22.3676 20.483L22.3705 20.4787L21.6262 19.9876ZM22.6554 18.4279L23.3997 18.919L23.4027 18.9144L22.6554 18.4279ZM24.8316 17.1965L24.7864 16.3059L24.7813 16.3062L24.8316 17.1965ZM31.3902 17.1965L31.4405 16.3062L31.4354 16.3059L31.3902 17.1965ZM32.6376 17.5606L33.0767 16.7845L33.0767 16.7845L32.6376 17.5606ZM33.5664 18.4279L32.8191 18.9144L32.8224 18.9194L33.5664 18.4279ZM34.5968 19.9876L33.8528 20.4791L33.8554 20.483L34.5968 19.9876ZM35.4783 20.8279L35.015 21.5898L35.015 21.5898L35.4783 20.8279ZM36.6527 21.2379L36.7714 20.3541L36.767 20.3536L36.6527 21.2379ZM38.0742 21.4453L37.9354 22.3262L37.9357 22.3262L38.0742 21.4453ZM39.507 35.8878L40.1196 36.5358L40.1196 36.5358L39.507 35.8878ZM16.7148 35.8878L16.1022 36.5358L16.1022 36.5358L16.7148 35.8878ZM18.1476 21.4453L18.286 22.3262L18.2867 22.3261L18.1476 21.4453ZM19.5691 21.2379L19.4552 20.3535L19.4504 20.3542L19.5691 21.2379ZM32.4321 31.2123L31.8016 30.5817L31.8016 30.5817L32.4321 31.2123ZM23.7897 22.5699L24.4202 23.2004L24.4202 23.2004L23.7897 22.5699ZM23.7897 31.2123L24.4202 30.5817L24.4202 30.5817L23.7897 31.2123ZM21.6262 19.9876L20.8848 19.4921C20.7331 19.7191 20.528 19.916 20.281 20.0661L20.7441 20.8281L21.2073 21.5901C21.671 21.3083 22.068 20.9314 22.3676 20.483L21.6262 19.9876ZM22.6554 18.4279L21.9111 17.9368L20.8819 19.4964L21.6262 19.9876L22.3705 20.4787L23.3997 18.919L22.6554 18.4279ZM23.5842 17.5606L23.1451 16.7845C22.6452 17.0674 22.2197 17.4629 21.9081 17.9413L22.6554 18.4279L23.4027 18.9144C23.554 18.682 23.7656 18.4825 24.0234 18.3367L23.5842 17.5606ZM24.8316 17.1965L24.7813 16.3062C24.206 16.3387 23.6448 16.5018 23.1451 16.7845L23.5842 17.5606L24.0234 18.3367C24.2813 18.1907 24.5758 18.1041 24.8818 18.0868L24.8316 17.1965ZM31.3902 17.1965L31.4354 16.3059C29.2207 16.1935 27.0011 16.1935 24.7864 16.3059L24.8316 17.1965L24.8768 18.087C27.0313 17.9776 29.1905 17.9776 31.345 18.087L31.3902 17.1965ZM32.6376 17.5606L33.0767 16.7845C32.577 16.5018 32.0158 16.3387 31.4405 16.3062L31.3902 17.1965L31.3399 18.0868C31.646 18.1041 31.9405 18.1907 32.1984 18.3367L32.6376 17.5606ZM33.5664 18.4279L34.3137 17.9413C34.0021 17.4629 33.5766 17.0674 33.0767 16.7845L32.6376 17.5606L32.1984 18.3367C32.4562 18.4825 32.6678 18.682 32.8191 18.9144L33.5664 18.4279ZM34.5968 19.9876L35.3408 19.496L34.3104 17.9363L33.5664 18.4279L32.8224 18.9194L33.8528 20.4791L34.5968 19.9876ZM35.4783 20.8279L35.9417 20.066C35.6948 19.9159 35.4898 19.719 35.3383 19.4922L34.5968 19.9876L33.8554 20.483C34.1548 20.9311 34.5516 21.3079 35.015 21.5898L35.4783 20.8279ZM36.6527 21.2379L36.767 20.3536C36.4703 20.3152 36.1887 20.2163 35.9417 20.066L35.4783 20.8279L35.015 21.5898C35.4782 21.8715 35.9982 22.0524 36.5383 22.1223L36.6527 21.2379ZM38.0742 21.4453L38.213 20.5645C37.7333 20.4889 37.2528 20.4188 36.7714 20.3541L36.6527 21.2379L36.534 22.1217C37.002 22.1846 37.4692 22.2527 37.9354 22.3262L38.0742 21.4453ZM40.3331 24.016H41.2248C41.2248 22.2974 39.9502 20.8377 38.2127 20.5644L38.0742 21.4453L37.9357 22.3262C38.8357 22.4678 39.4414 23.2054 39.4414 24.016H40.3331ZM40.3331 34.0022H41.2248V24.016H40.3331H39.4414V34.0022H40.3331ZM39.507 35.8878L40.1196 36.5358C40.8208 35.8728 41.2248 34.9626 41.2248 34.0022H40.3331H39.4414C39.4414 34.4563 39.2511 34.9026 38.8944 35.2398L39.507 35.8878ZM37.5126 36.6688V37.5605C38.4815 37.5605 39.4201 37.1971 40.1196 36.5358L39.507 35.8878L38.8944 35.2398C38.536 35.5787 38.0398 35.7771 37.5126 35.7771V36.6688ZM18.7092 36.6688V37.5605H37.5126V36.6688V35.7771H18.7092V36.6688ZM16.7148 35.8878L16.1022 36.5358C16.8017 37.1971 17.7403 37.5605 18.7092 37.5605V36.6688V35.7771C18.182 35.7771 17.6858 35.5787 17.3274 35.2398L16.7148 35.8878ZM15.8887 34.0022H14.997C14.997 34.9626 15.401 35.8728 16.1022 36.5358L16.7148 35.8878L17.3274 35.2398C16.9707 34.9026 16.7804 34.4563 16.7804 34.0022H15.8887ZM15.8887 24.016H14.997V34.0022H15.8887H16.7804V24.016H15.8887ZM18.1476 21.4453L18.0092 20.5644C16.27 20.8377 14.997 22.2977 14.997 24.016H15.8887H16.7804C16.7804 23.205 17.3851 22.4678 18.286 22.3262L18.1476 21.4453ZM19.5691 21.2379L19.4504 20.3542C18.9676 20.419 18.4882 20.4887 18.0084 20.5645L18.1476 21.4453L18.2867 22.3261C18.7521 22.2526 19.2179 22.1848 19.6879 22.1217L19.5691 21.2379ZM20.7441 20.8281L20.281 20.0661C20.0338 20.2164 19.752 20.3153 19.4552 20.3535L19.5691 21.2379L19.6831 22.1223C20.2234 22.0527 20.7437 21.8719 21.2073 21.5901L20.7441 20.8281ZM34.222 26.8911H33.3303C33.3303 28.2753 32.7804 29.6029 31.8016 30.5817L32.4321 31.2123L33.0626 31.8428C34.3759 30.5295 35.1137 28.7483 35.1137 26.8911H34.222ZM32.4321 22.5699L31.8016 23.2004C32.7804 24.1792 33.3303 25.5068 33.3303 26.8911H34.222H35.1137C35.1137 25.0338 34.3759 23.2526 33.0626 21.9393L32.4321 22.5699ZM28.1109 20.7799V21.6717C29.4952 21.6717 30.8227 22.2216 31.8016 23.2004L32.4321 22.5699L33.0626 21.9393C31.7494 20.626 29.9682 19.8882 28.1109 19.8882V20.7799ZM23.7897 22.5699L24.4202 23.2004C25.399 22.2216 26.7266 21.6717 28.1109 21.6717V20.7799V19.8882C26.2536 19.8882 24.4724 20.626 23.1592 21.9393L23.7897 22.5699ZM21.9998 26.8911H22.8915C22.8915 25.5068 23.4414 24.1792 24.4202 23.2004L23.7897 22.5699L23.1592 21.9393C21.8459 23.2526 21.1081 25.0338 21.1081 26.8911H21.9998ZM23.7897 31.2123L24.4202 30.5817C23.4414 29.6029 22.8915 28.2753 22.8915 26.8911H21.9998H21.1081C21.1081 28.7483 21.8459 30.5295 23.1592 31.8428L23.7897 31.2123ZM28.1109 33.0022V32.1105C26.7266 32.1105 25.399 31.5606 24.4202 30.5817L23.7897 31.2123L23.1592 31.8428C24.4724 33.1561 26.2536 33.8939 28.1109 33.8939V33.0022ZM32.4321 31.2123L31.8016 30.5817C30.8227 31.5606 29.4952 32.1105 28.1109 32.1105V33.0022V33.8939C29.9682 33.8939 31.7494 33.1561 33.0626 31.8428L32.4321 31.2123Z" fill="#212121"/>
</svg>
