<svg width="55" height="55" viewBox="0 0 55 55" fill="none" xmlns="http://www.w3.org/2000/svg">
<path fill-rule="evenodd" clip-rule="evenodd" d="M19.9658 20.7993C20.3293 20.5784 20.6372 20.2849 20.8679 19.9396L21.9205 18.3445C22.1572 17.981 22.483 17.6767 22.8705 17.4575C23.2579 17.2383 23.6955 17.1105 24.1462 17.0851C26.3804 16.9716 28.6196 16.9716 30.8538 17.0851C31.3045 17.1105 31.7421 17.2383 32.1295 17.4575C32.517 17.6767 32.8428 17.981 33.0795 18.3445L34.1333 19.9396C34.364 20.2848 34.6717 20.5781 35.0349 20.799C35.3981 21.0199 35.808 21.1631 36.2359 21.2184C36.7214 21.2836 37.206 21.3543 37.6897 21.4305C39.0385 21.6426 40 22.7662 40 24.0596V34.2728C40 34.9961 39.6961 35.6898 39.1551 36.2012C38.6141 36.7127 37.8804 37 37.1154 37H17.8846C17.1196 37 16.3859 36.7127 15.8449 36.2012C15.3039 35.6898 15 34.9961 15 34.2728V24.0596C15 22.7662 15.9603 21.6426 17.3103 21.4305C17.7936 21.3541 18.2769 21.2838 18.7641 21.2184C19.1922 21.1632 19.6024 21.0202 19.9658 20.7993ZM31.9196 31.4207C33.0917 30.2486 33.7502 28.6589 33.7502 27.0013C33.7502 25.3437 33.0917 23.754 31.9196 22.5819C30.7475 21.4098 29.1578 20.7513 27.5002 20.7513C25.8426 20.7513 24.2529 21.4098 23.0808 22.5819C21.9087 23.754 21.2502 25.3437 21.2502 27.0013C21.2502 28.6589 21.9087 30.2486 23.0808 31.4207C24.2529 32.5929 25.8426 33.2513 27.5002 33.2513C29.1578 33.2513 30.7475 32.5929 31.9196 31.4207Z" fill="#212121"/>
<path d="M20.8679 19.9396L21.6262 20.4463L21.6291 20.4419L20.8679 19.9396ZM19.9658 20.7993L20.4395 21.5786L20.4395 21.5786L19.9658 20.7993ZM21.9205 18.3445L22.6817 18.8468L22.6848 18.8421L21.9205 18.3445ZM22.8705 17.4575L22.4213 16.6638L22.4213 16.6638L22.8705 17.4575ZM24.1462 17.0851L24.0999 16.1743L24.0947 16.1746L24.1462 17.0851ZM30.8538 17.0851L30.9053 16.1746L30.9001 16.1743L30.8538 17.0851ZM32.1295 17.4575L32.5787 16.6638L32.5787 16.6638L32.1295 17.4575ZM33.0795 18.3445L32.3152 18.8421L32.3186 18.8472L33.0795 18.3445ZM34.1333 19.9396L33.3724 20.4423L33.375 20.4463L34.1333 19.9396ZM36.2359 21.2184L36.3573 20.3145L36.3528 20.3139L36.2359 21.2184ZM37.6897 21.4305L37.5478 22.3314L37.5481 22.3314L37.6897 21.4305ZM39.1551 36.2012L38.5286 35.5385L38.5286 35.5385L39.1551 36.2012ZM15.8449 36.2012L16.4714 35.5385L16.4714 35.5385L15.8449 36.2012ZM17.3103 21.4305L17.4518 22.3314L17.4526 22.3313L17.3103 21.4305ZM18.7641 21.2184L18.6476 20.3139L18.6427 20.3145L18.7641 21.2184ZM31.9196 31.4207L32.5645 32.0656L32.5645 32.0656L31.9196 31.4207ZM31.9196 22.5819L32.5645 21.9371L32.5645 21.9371L31.9196 22.5819ZM23.0808 22.5819L23.7257 23.2268L23.7257 23.2268L23.0808 22.5819ZM23.0808 31.4207L22.4359 32.0656L22.4359 32.0656L23.0808 31.4207ZM20.8679 19.9396L20.1097 19.4329C19.9546 19.665 19.7448 19.8664 19.4921 20.02L19.9658 20.7993L20.4395 21.5786C20.9137 21.2903 21.3198 20.9049 21.6262 20.4463L20.8679 19.9396ZM21.9205 18.3445L21.1593 17.8422L20.1068 19.4373L20.8679 19.9396L21.6291 20.4419L22.6817 18.8468L21.9205 18.3445ZM22.8705 17.4575L22.4213 16.6638C21.9101 16.9531 21.4749 17.3575 21.1563 17.8469L21.9205 18.3445L22.6848 18.8421C22.8395 18.6044 23.056 18.4004 23.3196 18.2512L22.8705 17.4575ZM24.1462 17.0851L24.0947 16.1746C23.5063 16.2078 22.9324 16.3746 22.4213 16.6638L22.8705 17.4575L23.3196 18.2512C23.5834 18.1019 23.8846 18.0133 24.1976 17.9956L24.1462 17.0851ZM30.8538 17.0851L30.9001 16.1743C28.635 16.0593 26.365 16.0593 24.0999 16.1743L24.1462 17.0851L24.1924 17.9959C26.3959 17.884 28.6041 17.884 30.8076 17.9959L30.8538 17.0851ZM32.1295 17.4575L32.5787 16.6638C32.0676 16.3746 31.4937 16.2078 30.9053 16.1746L30.8538 17.0851L30.8024 17.9956C31.1154 18.0133 31.4166 18.1019 31.6804 18.2512L32.1295 17.4575ZM33.0795 18.3445L33.8437 17.8469C33.5251 17.3575 33.0899 16.9531 32.5787 16.6638L32.1295 17.4575L31.6804 18.2512C31.944 18.4004 32.1605 18.6044 32.3152 18.8421L33.0795 18.3445ZM34.1333 19.9396L34.8942 19.4369L33.8404 17.8418L33.0795 18.3445L32.3186 18.8472L33.3724 20.4423L34.1333 19.9396ZM35.0349 20.799L35.5088 20.0199C35.2563 19.8663 35.0467 19.665 34.8916 19.433L34.1333 19.9396L33.375 20.4463C33.6813 20.9046 34.0871 21.29 34.561 21.5782L35.0349 20.799ZM36.2359 21.2184L36.3528 20.3139C36.0494 20.2747 35.7614 20.1735 35.5088 20.0199L35.0349 20.799L34.561 21.5782C35.0348 21.8664 35.5666 22.0514 36.119 22.1228L36.2359 21.2184ZM37.6897 21.4305L37.8317 20.5296C37.3411 20.4524 36.8496 20.3807 36.3573 20.3145L36.2359 21.2184L36.1145 22.1222C36.5931 22.1865 37.071 22.2562 37.5478 22.3314L37.6897 21.4305ZM40 24.0596H40.912C40.912 22.3019 39.6083 20.8091 37.8314 20.5296L37.6897 21.4305L37.5481 22.3314C38.4686 22.4762 39.088 23.2306 39.088 24.0596H40ZM40 34.2728H40.912V24.0596H40H39.088V34.2728H40ZM39.1551 36.2012L39.7816 36.8639C40.4988 36.1859 40.912 35.255 40.912 34.2728H40H39.088C39.088 34.7372 38.8934 35.1936 38.5286 35.5385L39.1551 36.2012ZM37.1154 37V37.912C38.1063 37.912 39.0662 37.5403 39.7816 36.8639L39.1551 36.2012L38.5286 35.5385C38.1621 35.885 37.6546 36.088 37.1154 36.088V37ZM17.8846 37V37.912H37.1154V37V36.088H17.8846V37ZM15.8449 36.2012L15.2184 36.8639C15.9338 37.5403 16.8937 37.912 17.8846 37.912V37V36.088C17.3454 36.088 16.8379 35.885 16.4714 35.5385L15.8449 36.2012ZM15 34.2728H14.088C14.088 35.255 14.5012 36.1859 15.2184 36.8639L15.8449 36.2012L16.4714 35.5385C16.1066 35.1936 15.912 34.7372 15.912 34.2728H15ZM15 24.0596H14.088V34.2728H15H15.912V24.0596H15ZM17.3103 21.4305L17.1687 20.5296C15.39 20.809 14.088 22.3023 14.088 24.0596H15H15.912C15.912 23.2302 16.5305 22.4762 17.4518 22.3314L17.3103 21.4305ZM18.7641 21.2184L18.6427 20.3145C18.1489 20.3809 17.6586 20.4522 17.1679 20.5297L17.3103 21.4305L17.4526 22.3313C17.9285 22.2561 18.4049 22.1868 18.8855 22.1222L18.7641 21.2184ZM19.9658 20.7993L19.4921 20.02C19.2393 20.1736 18.9511 20.2748 18.6476 20.3139L18.7641 21.2184L18.8806 22.1229C19.4333 22.0517 19.9654 21.8667 20.4395 21.5786L19.9658 20.7993ZM33.7502 27.0013H32.8382C32.8382 28.4171 32.2758 29.7748 31.2748 30.7759L31.9196 31.4207L32.5645 32.0656C33.9076 30.7225 34.6622 28.9008 34.6622 27.0013H33.7502ZM31.9196 22.5819L31.2748 23.2268C32.2759 24.2279 32.8382 25.5856 32.8382 27.0013H33.7502H34.6622C34.6622 25.1019 33.9076 23.2802 32.5645 21.9371L31.9196 22.5819ZM27.5002 20.7513V21.6633C28.916 21.6633 30.2737 22.2257 31.2748 23.2268L31.9196 22.5819L32.5645 21.9371C31.2214 20.5939 29.3997 19.8394 27.5002 19.8394V20.7513ZM23.0808 22.5819L23.7257 23.2268C24.7267 22.2257 26.0845 21.6633 27.5002 21.6633V20.7513V19.8394C25.6007 19.8394 23.7791 20.5939 22.4359 21.9371L23.0808 22.5819ZM21.2502 27.0013H22.1622C22.1622 25.5856 22.7246 24.2279 23.7257 23.2268L23.0808 22.5819L22.4359 21.9371C21.0928 23.2802 20.3382 25.1019 20.3382 27.0013H21.2502ZM23.0808 31.4207L23.7257 30.7759C22.7246 29.7748 22.1622 28.4171 22.1622 27.0013H21.2502H20.3382C20.3382 28.9008 21.0928 30.7225 22.4359 32.0656L23.0808 31.4207ZM27.5002 33.2513V32.3394C26.0845 32.3394 24.7267 31.777 23.7257 30.7759L23.0808 31.4207L22.4359 32.0656C23.7791 33.4087 25.6007 34.1633 27.5002 34.1633V33.2513ZM31.9196 31.4207L31.2748 30.7759C30.2737 31.777 28.916 32.3394 27.5002 32.3394V33.2513V34.1633C29.3997 34.1633 31.2214 33.4087 32.5645 32.0656L31.9196 31.4207Z" fill="#212121"/>
</svg>
