<svg width="165" height="220" viewBox="0 0 165 220" fill="none" xmlns="http://www.w3.org/2000/svg">
<rect x="0.75" y="0.75" width="163.5" height="218.5" rx="9.25" stroke="white" stroke-opacity="0.5" stroke-width="1.5"/>
<g opacity="0.75">
<path fill-rule="evenodd" clip-rule="evenodd" d="M101.02 104.807L97.2736 103.254L101.738 100.895C103.1 100.187 104.307 99.2172 105.29 98.0428C106.273 96.8684 107.012 95.5122 107.465 94.0526C107.918 92.5929 108.076 91.0586 107.929 89.5381C107.782 88.0176 107.334 86.541 106.61 85.1934C105.157 82.4654 102.672 80.4228 99.7023 79.5149C96.7328 78.607 93.5221 78.9081 90.7761 80.3521L64.258 94.3154C62.288 95.3439 60.6541 96.9093 59.5479 98.8279C58.4417 100.747 57.9091 102.939 58.0127 105.148C58.1186 107.301 58.8223 109.382 60.0457 111.163C61.2692 112.943 62.9647 114.352 64.9445 115.233C65.0381 115.264 68.6937 116.783 68.6937 116.783L64.258 119.111C62.3966 120.108 60.8414 121.588 59.757 123.392C58.6727 125.196 58.0996 127.258 58.0985 129.359C58.1149 132.442 59.3549 135.394 61.549 137.573C63.7432 139.753 66.7143 140.984 69.817 141C71.702 141 73.5533 140.55 75.2251 139.688L101.772 125.722C103.738 124.692 105.367 123.125 106.467 121.207C107.568 119.289 108.095 117.098 107.986 114.892C107.874 112.737 107.165 110.654 105.936 108.874C104.707 107.094 103.004 105.686 101.02 104.807ZM76.7513 101.794V118.24L92.3699 110.02L76.7513 101.794Z" fill="#FF0000"/>
<path d="M76.7513 118.24V101.794L92.3699 110.02L76.7513 118.24Z" fill="white"/>
</g>
</svg>
