<svg width="50" height="50" viewBox="0 0 50 50" fill="none" xmlns="http://www.w3.org/2000/svg">
<g filter="url(#filter0_d_19382_35958)">
<path d="M25.6562 34.9174C26.4477 35.5632 27.6151 35.5198 28.3564 34.7856L28.7637 34.3813L28.7666 34.3784L28.9336 34.1948C29.3032 33.7462 29.5292 33.1648 29.5293 32.5405C29.5293 32.3636 29.5131 32.1792 29.4775 32.0014L29.4678 31.9526L29.4531 31.9057L28.1182 27.7573H34.8213C35.6638 27.7573 36.4725 27.4222 37.0684 26.8266C37.6642 26.2308 37.9998 25.4221 38 24.5795V22.268C38 21.8516 37.9186 21.4674 37.7783 21.1088L37.7734 21.0961L37.7676 21.0834L34.2783 12.937L34.2773 12.9379C33.7974 11.7938 32.6691 11.0016 31.3555 11.0014H14.0215C12.9048 11.0016 12 11.9071 12 13.0239V25.7348C12.0002 26.8514 12.9049 27.7571 14.0215 27.7573H18.5039C18.5699 27.8373 18.6393 27.9151 18.7129 27.9887L25.5029 34.7787L25.6562 34.9174ZM14.0215 26.0239C13.8622 26.0237 13.7326 25.8941 13.7324 25.7348V13.0239C13.7324 12.8644 13.8621 12.735 14.0215 12.7348H17.7773V26.0239H14.0215ZM27.1367 33.5541C27.038 33.6518 26.8861 33.6638 26.7744 33.5903L26.7285 33.5532L19.9385 26.7631C19.6677 26.4924 19.5108 26.1323 19.5107 25.7348V12.7348H31.3555C31.957 12.735 32.4666 13.095 32.6816 13.6108L32.6846 13.6186L36.1641 21.7426C36.2311 21.9147 36.2666 22.0844 36.2666 22.268V24.5795C36.2664 24.9624 36.1135 25.3293 35.8428 25.6C35.5719 25.8709 35.2043 26.0239 34.8213 26.0239H27.0879C26.4219 26.0239 25.9496 26.6721 26.1533 27.3061L27.7832 32.3764C27.7903 32.4234 27.7959 32.4796 27.7959 32.5405C27.7958 32.773 27.6989 32.9934 27.5439 33.1498L27.1367 33.5541Z" fill="white"/>
</g>
<defs>
<filter id="filter0_d_19382_35958" x="9.68889" y="8.68889" width="30.6222" height="28.9933" filterUnits="userSpaceOnUse" color-interpolation-filters="sRGB">
<feFlood flood-opacity="0" result="BackgroundImageFix"/>
<feColorMatrix in="SourceAlpha" type="matrix" values="0 0 0 0 0 0 0 0 0 0 0 0 0 0 0 0 0 0 127 0" result="hardAlpha"/>
<feOffset/>
<feGaussianBlur stdDeviation="1.15556"/>
<feComposite in2="hardAlpha" operator="out"/>
<feColorMatrix type="matrix" values="0 0 0 0 0 0 0 0 0 0 0 0 0 0 0 0 0 0 0.15 0"/>
<feBlend mode="normal" in2="BackgroundImageFix" result="effect1_dropShadow_19382_35958"/>
<feBlend mode="normal" in="SourceGraphic" in2="effect1_dropShadow_19382_35958" result="shape"/>
</filter>
</defs>
</svg>
