<svg width="50" height="50" viewBox="0 0 50 50" fill="none" xmlns="http://www.w3.org/2000/svg">
<path d="M37.2667 24.4967C37.2667 25.1096 37.0232 25.6974 36.5898 26.1309C36.1563 26.5643 35.5685 26.8078 34.9556 26.8078H27.0631L28.7618 32.0887C28.7849 32.2042 28.7964 32.3313 28.7964 32.4584C28.7964 32.9322 28.6 33.3713 28.288 33.6833L27.8802 34.0873C27.4283 34.5349 26.6996 34.5332 26.2499 34.0834L19.4596 27.2931C19.032 26.8655 18.7778 26.2878 18.7778 25.6522V11.7855H31.4889C32.448 11.7855 33.2684 12.3633 33.6151 13.1953L37.1049 21.342C37.2089 21.6078 37.2667 21.8851 37.2667 22.1855V24.4967Z" fill="white"/>
<path d="M13 25.6522C13 26.2904 13.5174 26.8078 14.1556 26.8078H18.7778V11.7855H14.1556C13.5174 11.7855 13 12.3029 13 12.9411V25.6522Z" fill="white"/>
</svg>
