<svg width="30" height="30" viewBox="0 0 30 30" fill="none" xmlns="http://www.w3.org/2000/svg">
<path d="M8 19.7991V21.5201C8 21.6474 8.05056 21.7694 8.14057 21.8594C8.23057 21.9494 8.35264 22 8.47992 22H10.2009C10.3279 22 10.4498 21.9496 10.5397 21.8599L18.6984 13.7012L16.2988 11.3016L8.14014 19.4603C8.05042 19.5502 8.00003 19.6721 8 19.7991ZM18.1647 9.43571L20.5643 11.8353L21.719 10.6806C21.8989 10.5006 22 10.2565 22 10.002C22 9.7475 21.8989 9.50341 21.719 9.32341L20.6766 8.28103C20.4966 8.10109 20.2525 8 19.998 8C19.7435 8 19.4994 8.10109 19.3194 8.28103L18.1647 9.43571Z" stroke="white" stroke-width="0.959839"/>
</svg>
