<svg width="50" height="50" viewBox="0 0 50 50" fill="none" xmlns="http://www.w3.org/2000/svg">
<g filter="url(#filter0_d_19382_35959)">
<path d="M25.6914 8.42899C26.4677 7.81851 27.6028 7.85936 28.3311 8.55302L28.7402 8.94267L28.7432 8.94462L28.9092 9.12138C29.2786 9.55264 29.5087 10.1163 29.5088 10.7278C29.5088 10.9005 29.4932 11.0813 29.457 11.2552L29.4463 11.303L29.4307 11.3499L28.0967 15.3401H34.8486C35.6744 15.3401 36.4729 15.6552 37.0664 16.2259C37.6609 16.7976 38.001 17.5804 38.001 18.4036V20.6311C38.001 21.0373 37.9189 21.4121 37.7773 21.76L37.7725 21.7727L37.7666 21.7845L34.2705 29.6292L34.2715 29.6302C33.7886 30.7445 32.6601 31.4934 31.373 31.4934H13.9941C12.9242 31.4933 12 30.6504 12 29.5433V17.2893C12.0001 16.1823 12.9242 15.3403 13.9941 15.3401H18.5137C18.5828 15.2586 18.656 15.1802 18.7334 15.1058L25.541 8.55888L25.6914 8.42899ZM13.9941 17.011C13.7849 17.0112 13.672 17.1662 13.6719 17.2893V29.5433C13.6719 29.6664 13.7848 29.8214 13.9941 29.8216H17.793V17.011H13.9941ZM27.1787 9.76298C27.0656 9.65528 26.8822 9.64203 26.752 9.72294L26.6992 9.76395L19.8916 16.3099C19.6171 16.5738 19.4639 16.9171 19.4639 17.2893V29.8216H31.373C32.009 29.8215 32.5261 29.4558 32.7383 28.9661L32.7412 28.9583L36.2314 21.1233C36.2967 20.961 36.3301 20.802 36.3301 20.6311V18.4036C36.3301 18.0451 36.1827 17.6939 35.9082 17.43C35.6327 17.165 35.2519 17.011 34.8486 17.011H27.0898C26.4434 17.0107 25.9874 16.3771 26.1924 15.764L27.8242 10.885C27.8314 10.8406 27.8379 10.7867 27.8379 10.7278C27.8378 10.5148 27.7459 10.3062 27.5879 10.1526L27.1787 9.76298Z" fill="white"/>
</g>
<defs>
<filter id="filter0_d_19382_35959" x="9.772" y="5.772" width="30.456" height="27.9482" filterUnits="userSpaceOnUse" color-interpolation-filters="sRGB">
<feFlood flood-opacity="0" result="BackgroundImageFix"/>
<feColorMatrix in="SourceAlpha" type="matrix" values="0 0 0 0 0 0 0 0 0 0 0 0 0 0 0 0 0 0 127 0" result="hardAlpha"/>
<feOffset/>
<feGaussianBlur stdDeviation="1.114"/>
<feComposite in2="hardAlpha" operator="out"/>
<feColorMatrix type="matrix" values="0 0 0 0 0 0 0 0 0 0 0 0 0 0 0 0 0 0 0.15 0"/>
<feBlend mode="normal" in2="BackgroundImageFix" result="effect1_dropShadow_19382_35959"/>
<feBlend mode="normal" in="SourceGraphic" in2="effect1_dropShadow_19382_35959" result="shape"/>
</filter>
</defs>
</svg>
