<svg width="50" height="50" viewBox="0 0 50 50" fill="none" xmlns="http://www.w3.org/2000/svg">
<path d="M37.1657 18.4042C37.1657 17.8133 36.9215 17.2466 36.487 16.8288C36.0524 16.411 35.4631 16.1762 34.8485 16.1762H26.9356L28.6387 11.0852C28.6618 10.9738 28.6734 10.8513 28.6734 10.7288C28.6734 10.272 28.4765 9.84871 28.1637 9.54793L27.7548 9.1585C27.3017 8.72697 26.5712 8.72863 26.1202 9.16222L19.3123 15.7083C18.8836 16.1205 18.6287 16.6775 18.6287 17.2902V30.6582H31.3729C32.3345 30.6582 33.157 30.1012 33.5046 29.2991L37.0035 21.4454C37.1077 21.1892 37.1657 20.9218 37.1657 20.6322V18.4042Z" fill="white"/>
<path d="M12.8359 17.2902C12.8359 16.675 13.3546 16.1762 13.9945 16.1762H18.6287V30.6582H13.9945C13.3546 30.6582 12.8359 30.1594 12.8359 29.5442V17.2902Z" fill="white"/>
</svg>
