<svg width="40" height="40" viewBox="0 0 40 40" fill="none" xmlns="http://www.w3.org/2000/svg">
<g filter="url(#filter0_d_19382_35957)">
<path d="M13.8271 27.75C15.526 27.7498 16.9029 26.3727 16.9033 24.6738V18.5889L25.5186 16.4346V21.3955C25.0042 21.0085 24.367 20.7756 23.6738 20.7754C21.9746 20.7754 20.5969 22.1534 20.5967 23.8525C20.5969 25.5517 21.9746 26.9287 23.6738 26.9287C25.3727 26.9283 26.7498 25.5515 26.75 23.8525V12.3652C26.75 12.1758 26.662 11.9965 26.5127 11.8799C26.3822 11.7782 26.2168 11.7337 26.0547 11.7549L25.9854 11.7686L16.1387 14.2295C15.865 14.2981 15.6729 14.545 15.6729 14.8271V22.2168C15.1583 21.8294 14.5208 21.5968 13.8271 21.5967C12.1279 21.5968 10.75 22.9745 10.75 24.6738C10.7504 26.3728 12.1281 27.7499 13.8271 27.75ZM16.9033 15.3066L25.5186 13.1523V15.166L16.9033 17.3203V15.3066ZM23.6738 25.6982C22.6544 25.6982 21.8274 24.872 21.8271 23.8525C21.8273 22.8331 22.6543 22.0059 23.6738 22.0059C24.6868 22.0063 25.5084 22.8233 25.5186 23.834V23.8594C25.5149 24.8756 24.6908 25.6978 23.6738 25.6982ZM13.8271 26.5195C12.8079 26.5195 11.9809 25.693 11.9805 24.6738C11.9805 23.6543 12.8076 22.8272 13.8271 22.8271C14.8466 22.8274 15.6729 23.6544 15.6729 24.6738C15.6724 25.6929 14.8463 26.5193 13.8271 26.5195Z" fill="white"/>
</g>
<defs>
<filter id="filter0_d_19382_35957" x="9.10897" y="10.109" width="19.2821" height="19.2821" filterUnits="userSpaceOnUse" color-interpolation-filters="sRGB">
<feFlood flood-opacity="0" result="BackgroundImageFix"/>
<feColorMatrix in="SourceAlpha" type="matrix" values="0 0 0 0 0 0 0 0 0 0 0 0 0 0 0 0 0 0 127 0" result="hardAlpha"/>
<feOffset/>
<feGaussianBlur stdDeviation="0.820513"/>
<feComposite in2="hardAlpha" operator="out"/>
<feColorMatrix type="matrix" values="0 0 0 0 0 0 0 0 0 0 0 0 0 0 0 0 0 0 0.15 0"/>
<feBlend mode="normal" in2="BackgroundImageFix" result="effect1_dropShadow_19382_35957"/>
<feBlend mode="normal" in="SourceGraphic" in2="effect1_dropShadow_19382_35957" result="shape"/>
</filter>
</defs>
</svg>
