<svg width="40" height="40" viewBox="0 0 40 40" fill="none" xmlns="http://www.w3.org/2000/svg">
<path d="M12.4403 26.2638H22.0457C21.979 27.5515 21.1491 28.372 20.0047 28.372C18.8505 28.372 18.03 27.5515 17.9534 26.2638H16.4655C16.542 28.0952 17.9823 29.7069 20.0047 29.7069C22.0173 29.7069 23.4576 28.0952 23.5341 26.2638H27.5593C28.4656 26.2638 29 25.7965 29 25.1095C29 24.1556 28.0362 23.2972 27.2064 22.4482C26.5768 21.7901 26.405 20.4357 26.3383 19.3388C26.2622 15.5803 25.2988 13.1477 22.7519 12.2319C22.4369 10.9922 21.4068 10 20.0047 10C18.5924 10 17.5721 10.9922 17.2477 12.2319C14.7105 13.1477 13.7374 15.5803 13.6707 19.3384C13.5946 20.4357 13.4322 21.7901 12.7932 22.4482C11.9727 23.2972 11 24.1556 11 25.11C11 25.7965 11.5437 26.2638 12.4403 26.2638ZM12.8599 24.823V24.7091C13.0317 24.423 13.5946 23.8694 14.1001 23.3066C14.7773 22.5435 15.1013 21.3225 15.1875 19.4532C15.2636 15.2937 16.5037 13.9588 18.1443 13.5201C18.3828 13.4627 18.507 13.3385 18.5163 13.1001C18.5546 12.0989 19.1174 11.4021 20.0047 11.4021C20.8822 11.4021 21.4544 12.0984 21.4833 13.1001C21.4926 13.3385 21.6261 13.4623 21.8646 13.5197C23.4959 13.9588 24.736 15.2941 24.8218 19.4532C24.8979 21.3225 25.2223 22.5435 25.9093 23.3066C26.405 23.8694 26.9773 24.423 27.149 24.7091V24.823H12.8599Z" fill="white" stroke="white" stroke-width="0.2"/>
</svg>
