<svg width="30" height="30" viewBox="0 0 30 30" fill="none" xmlns="http://www.w3.org/2000/svg">
<path fill-rule="evenodd" clip-rule="evenodd" d="M10.6962 9.68281L11.3649 20.9223C11.375 21.0898 11.4486 21.2472 11.5707 21.3623C11.6929 21.4774 11.8543 21.5415 12.0221 21.5416H17.9779C18.1457 21.5415 18.3071 21.4774 18.4293 21.3623C18.5514 21.2472 18.625 21.0898 18.6351 20.9223L19.3038 9.68281H10.6962ZM20.2945 9.68281L19.6216 20.9808C19.5967 21.3999 19.4126 21.7936 19.1071 22.0815C18.8016 22.3694 18.3977 22.5298 17.9779 22.5299H12.0221C11.6023 22.5298 11.1984 22.3694 10.8929 22.0815C10.5874 21.7936 10.4033 21.3999 10.3784 20.9808L9.70553 9.68281H8V9.10634C8 8.99713 8.04338 8.8924 8.1206 8.81518C8.19782 8.73796 8.30256 8.69458 8.41176 8.69458H21.5882C21.6974 8.69458 21.8022 8.73796 21.8794 8.81518C21.9566 8.8924 22 8.99713 22 9.10634V9.68281H20.2945ZM16.6471 6.88281C16.7563 6.88281 16.861 6.92619 16.9382 7.00342C17.0154 7.08064 17.0588 7.18537 17.0588 7.29458V7.87105H12.9412V7.29458C12.9412 7.18537 12.9846 7.08064 13.0618 7.00342C13.139 6.92619 13.2437 6.88281 13.3529 6.88281H16.6471ZM12.9412 11.824H13.9294L14.3412 19.2358H13.3529L12.9412 11.824ZM16.0706 11.824H17.0588L16.6471 19.2358H15.6588L16.0706 11.824Z" fill="white"/>
</svg>
