<svg width="30" height="30" viewBox="0 0 30 30" fill="none" xmlns="http://www.w3.org/2000/svg">
<path d="M20 22.1367L19.688 22.5267C19.7615 22.5854 19.8501 22.6222 19.9436 22.6328C20.0371 22.6434 20.1317 22.6275 20.2165 22.5867C20.3013 22.546 20.3729 22.4821 20.423 22.4025C20.4732 22.3229 20.4999 22.2308 20.5 22.1367H20ZM20 8.13672H20.5V7.63672H20V8.13672ZM10 8.13672V7.63672H9.5V8.13672H10ZM10 22.1367H9.5C9.50013 22.2308 9.52681 22.3229 9.57697 22.4025C9.62712 22.4821 9.69872 22.546 9.78353 22.5867C9.86834 22.6275 9.96292 22.6434 10.0564 22.6328C10.1499 22.6222 10.2385 22.5854 10.312 22.5267L10 22.1367ZM15 18.1367L15.312 17.7467C15.2234 17.676 15.1134 17.6374 15 17.6374C14.8866 17.6374 14.7766 17.676 14.688 17.7467L15 18.1367ZM20.5 22.1367V8.13672H19.5V22.1367H20.5ZM9.5 8.13672V22.1367H10.5V8.13672H9.5ZM10.312 22.5267L15.312 18.5267L14.688 17.7467L9.688 21.7467L10.312 22.5267ZM14.688 18.5267L19.688 22.5267L20.312 21.7467L15.312 17.7467L14.688 18.5267ZM20 7.63672H10V8.63672H20V7.63672Z" fill="white"/>
</svg>
