<svg width="40" height="40" viewBox="0 0 40 40" fill="none" xmlns="http://www.w3.org/2000/svg">
<path d="M10.5 25.0117C10.8257 25.0173 11.1479 25.0821 11.4492 25.2061C11.7652 25.3361 12.0522 25.527 12.2939 25.7676C12.5358 26.0083 12.7277 26.2939 12.8584 26.6084C12.9891 26.923 13.0561 27.2602 13.0557 27.6006H10.5V25.0117ZM10.5 21.5557C13.8327 21.5857 16.5283 24.2825 16.5283 27.6006H14.792C14.7915 26.4554 14.3343 25.3567 13.5205 24.5469C12.7181 23.7484 11.6335 23.2962 10.5 23.2832V21.5557ZM10.5 18.1006C15.7511 18.1307 20 22.3736 20 27.6006H18.2637C18.2637 23.3238 14.7919 19.854 10.5 19.8281V18.1006ZM28.5508 12.4482C29.0477 12.4485 29.4502 12.8517 29.4502 13.3486V26.6475C29.45 27.1442 29.0476 27.5467 28.5508 27.5469H21.001V25.7471H27.6504V14.249H12.3525V17.0986H10.5518V13.3486C10.5518 12.8517 10.9552 12.4484 11.4521 12.4482H28.5508Z" fill="white"/>
</svg>
