<svg width="40" height="40" viewBox="0 0 40 40" fill="none" xmlns="http://www.w3.org/2000/svg">
<path fill-rule="evenodd" clip-rule="evenodd" d="M8.51792 8.36576C8.74175 8.17209 9.01787 8.04894 9.31152 8.01184C9.60518 7.97473 9.90325 8.02532 10.1682 8.15723L31.172 18.6591C31.4208 18.7838 31.6301 18.9753 31.7763 19.2122C31.9225 19.4491 32 19.722 32 20.0003C32 20.2787 31.9225 20.5516 31.7763 20.7885C31.6301 21.0253 31.4208 21.2168 31.172 21.3416L10.1682 31.8434C9.90328 31.9768 9.60469 32.0283 9.31038 31.9916C9.01607 31.9548 8.73934 31.8314 8.51534 31.637C8.29134 31.4426 8.1302 31.186 8.05239 30.8998C7.97458 30.6136 7.98361 30.3107 8.07834 30.0296L11.0789 21.028C11.1657 20.7671 11.3226 20.535 11.5325 20.3572C11.7423 20.1794 11.9969 20.0627 12.2686 20.0198L12.3841 20.0018L12.2686 19.9838C11.9969 19.941 11.7423 19.8243 11.5325 19.6465C11.3226 19.4687 11.1657 19.2366 11.0789 18.9757L8.07834 9.97405C7.98497 9.69297 7.97689 9.39053 8.05512 9.10486C8.13334 8.81919 8.29437 8.56307 8.51792 8.36876V8.36576ZM19.6799 19.6328C20.103 19.6988 20.103 20.3079 19.6799 20.3739L12.4936 21.5036L9.4931 30.5052L30.4968 20.0033L9.4931 9.50147L12.4936 18.5031L19.6799 19.6328Z" fill="white"/>
</svg>
