<svg width="40" height="40" viewBox="0 0 40 40" fill="none" xmlns="http://www.w3.org/2000/svg">

<path d="M20 23.75C20.8284 23.75 21.5 24.4216 21.5 25.25C21.5 26.0785 20.8285 26.75 20 26.75C19.1716 26.75 18.5 26.0784 18.5 25.25C18.5 24.4216 19.1716 23.75 20 23.75ZM20 18.5C20.8284 18.5 21.5 19.1716 21.5 20C21.5 20.8285 20.8285 21.5 20 21.5C19.1716 21.5 18.5 20.8284 18.5 20C18.5 19.1716 19.1716 18.5 20 18.5ZM20 13.25C20.8284 13.25 21.5 13.9216 21.5 14.75C21.5 15.5785 20.8285 16.25 20 16.25C19.1716 16.25 18.5 15.5784 18.5 14.75C18.5 13.9216 19.1716 13.25 20 13.25Z" fill="white"/>

</svg>