<svg width="50" height="50" viewBox="0 0 50 50" fill="none" xmlns="http://www.w3.org/2000/svg">
<g filter="url(#filter0_d_19382_35970)">
<path d="M25.2695 8.07244C25.6249 7.92523 26.0346 8.00654 26.3066 8.2785L37.7207 19.6935C37.9023 19.8752 38.0036 20.1223 38 20.3791C37.9963 20.636 37.8889 20.8813 37.7021 21.0578L26.2871 31.8381C26.0111 32.0987 25.6065 32.1699 25.2578 32.0197C24.9092 31.8694 24.6828 31.5263 24.6826 31.1467V25.1633C21.1095 25.4696 18.4846 27.4708 16.6826 29.55C15.7056 30.6773 14.988 31.8081 14.5156 32.6584C14.2802 33.0822 14.1072 33.4337 13.9941 33.676C13.9377 33.797 13.8957 33.8908 13.8691 33.9523C13.8559 33.9831 13.8467 34.0066 13.8408 34.0207C13.838 34.0275 13.836 34.0327 13.835 34.0353L13.834 34.0373V34.0363C13.6646 34.4594 13.2191 34.7034 12.7715 34.6174C12.3237 34.5311 12 34.1388 12 33.6828C12 28.2348 12.7946 23.5725 14.9248 20.2492C16.967 17.0634 20.1605 15.2218 24.6826 14.9982V8.95135L24.6934 8.80877C24.7427 8.48292 24.9588 8.20129 25.2695 8.07244ZM26.585 15.9269C26.5849 16.4523 26.1591 16.8781 25.6338 16.8781C21.1508 16.8782 18.3072 18.4975 16.5264 21.2756C15.1621 23.4038 14.3758 26.283 14.0625 29.8146C14.4086 29.326 14.8013 28.8149 15.2441 28.3039C17.4077 25.8075 20.8188 23.22 25.6338 23.2199C26.1591 23.2199 26.585 23.6457 26.585 24.1711V28.9396L35.6836 20.3459L26.585 11.2472V15.9269Z" fill="white"/>
</g>
<defs>
<filter id="filter0_d_19382_35970" x="9.46343" y="5.46343" width="31.0731" height="31.7059" filterUnits="userSpaceOnUse" color-interpolation-filters="sRGB">
<feFlood flood-opacity="0" result="BackgroundImageFix"/>
<feColorMatrix in="SourceAlpha" type="matrix" values="0 0 0 0 0 0 0 0 0 0 0 0 0 0 0 0 0 0 127 0" result="hardAlpha"/>
<feOffset/>
<feGaussianBlur stdDeviation="1.26828"/>
<feComposite in2="hardAlpha" operator="out"/>
<feColorMatrix type="matrix" values="0 0 0 0 0 0 0 0 0 0 0 0 0 0 0 0 0 0 0.15 0"/>
<feBlend mode="normal" in2="BackgroundImageFix" result="effect1_dropShadow_19382_35970"/>
<feBlend mode="normal" in="SourceGraphic" in2="effect1_dropShadow_19382_35970" result="shape"/>
</filter>
</defs>
</svg>
