<svg width="50" height="50" viewBox="0 0 50 50" fill="none" xmlns="http://www.w3.org/2000/svg">
<path fill-rule="evenodd" clip-rule="evenodd" d="M33.6254 22.3889L31.7521 21.6076L33.9842 20.4206C34.6651 20.064 35.2688 19.5762 35.7602 18.9852C36.2517 18.3942 36.6214 17.7117 36.8479 16.9772C37.0743 16.2426 37.1532 15.4705 37.0798 14.7054C37.0065 13.9402 36.7824 13.1972 36.4205 12.519C35.6935 11.1462 34.4511 10.1183 32.9664 9.66144C31.4817 9.20456 29.8763 9.35612 28.5033 10.0828L15.2443 17.1095C14.2592 17.627 13.4423 18.4148 12.8892 19.3803C12.3361 20.3458 12.0698 21.449 12.1216 22.5605C12.1745 23.6439 12.5264 24.6916 13.1381 25.5874C13.7498 26.4832 14.5976 27.1922 15.5875 27.6358C15.6343 27.6514 17.4621 28.4158 17.4621 28.4158L15.2443 29.5872C14.3135 30.0892 13.5359 30.8335 12.9938 31.7414C12.4516 32.6493 12.165 33.6869 12.1645 34.7444C12.1727 36.2957 12.7927 37.7811 13.8897 38.878C14.9868 39.9748 16.4724 40.5945 18.0237 40.6023C18.9662 40.6023 19.8919 40.3761 20.7278 39.9419L34.0011 32.9139C34.984 32.3955 35.7986 31.6073 36.349 30.6419C36.8994 29.6766 37.1628 28.5741 37.1082 27.4642C37.0524 26.3794 36.6976 25.3313 36.0832 24.4356C35.4688 23.5398 34.6173 22.8315 33.6254 22.3889ZM21.4909 20.873V29.149L29.3002 25.0123L21.4909 20.873Z" fill="#FF0000"/>
<path d="M21.4909 29.149V20.873L29.3002 25.0123L21.4909 29.149Z" fill="white"/>
</svg>
