<svg width="120" height="40" viewBox="0 0 120 40" fill="none" xmlns="http://www.w3.org/2000/svg">
<g clip-path="url(#clip0_19393_35940)">
<path d="M41.2285 11.7676C41.0453 11.0906 40.688 10.4735 40.1921 9.97765C39.6962 9.48179 39.0791 9.12451 38.4021 8.94141C35.9238 8.26562 25.9504 8.26562 25.9504 8.26562C25.9504 8.26562 15.9765 8.28613 13.4986 8.96191C12.8217 9.14505 12.2046 9.50234 11.7087 9.9982C11.2129 10.4941 10.8556 11.1112 10.6724 11.7881C9.92283 16.1914 9.63201 22.9006 10.6929 27.1275C10.8761 27.8045 11.2334 28.4216 11.7292 28.9174C12.2251 29.4133 12.8422 29.7706 13.5191 29.9537C15.9972 30.6295 25.9709 30.6295 25.9709 30.6295C25.9709 30.6295 35.9445 30.6295 38.4226 29.9537C39.0996 29.7706 39.7167 29.4133 40.2125 28.9174C40.7084 28.4216 41.0657 27.8045 41.2488 27.1275C42.0392 22.7182 42.283 16.0131 41.2283 11.7678" fill="#FF0000"/>
<path d="M22.7773 24.2408L31.0512 19.4486L22.7773 14.6562V24.2408Z" fill="white"/>
<path d="M105.945 14.76C107.031 14.76 107.85 14.9646 108.423 15.3537C108.997 15.7429 109.406 16.3574 109.652 17.1971C109.898 18.0367 110 19.1834 110 20.658V23.0543H104.737V23.7914L104.819 25.8189C104.88 26.2695 104.983 26.5973 105.146 26.802C105.311 27.0068 105.577 27.1092 105.925 27.1092C106.396 27.1092 106.724 26.925 106.887 26.5564C107.072 26.1877 107.154 25.5732 107.174 24.7336L109.898 24.8975C109.918 25.0203 109.918 25.1842 109.918 25.3889C109.918 26.6791 109.57 27.6418 108.853 28.2766C108.137 28.9113 107.154 29.2391 105.863 29.2391C104.307 29.2391 103.221 28.7477 102.607 27.7852C101.993 26.8225 101.665 25.3068 101.665 23.2795V20.8014C101.735 17.3199 102.347 14.7701 105.945 14.76ZM68.0781 15.0262V25.2865C68.0781 25.901 68.1395 26.3516 68.2828 26.6178C68.5736 27.1871 69.3273 27.0416 69.7369 26.7611C69.9733 26.6012 70.1639 26.3824 70.2898 26.1264V15.026H73.4232V29.0137H70.9656L70.6994 27.2934H70.6381C69.9623 28.5836 68.9586 29.2389 67.6275 29.2389C65.5787 29.2338 65.0773 27.7576 64.958 26.2584L64.9502 26.1527C64.9354 25.9257 64.9268 25.6982 64.9242 25.4707V15.0262H68.0781ZM84.2367 15.0262V25.2865C84.2367 25.901 84.298 26.3516 84.4414 26.6178C84.7324 27.1871 85.4859 27.0416 85.8955 26.7611C86.1319 26.6012 86.3225 26.3824 86.4484 26.1264V15.026H89.5818V29.0137H87.1242L86.858 27.2934H86.7967C86.1209 28.5836 85.1172 29.2389 83.7861 29.2389C81.7373 29.2338 81.2359 27.7576 81.1166 26.2584L81.1088 26.1527C81.094 25.9257 81.0854 25.6982 81.0828 25.4707V15.0262H84.2367ZM58.985 14.76C60.009 14.76 60.8486 14.9646 61.4631 15.3947C62.0773 15.8248 62.5484 16.4803 62.8352 17.3812C63.1219 18.2824 63.2652 19.4906 63.2652 20.9857V23.0131C63.2652 24.5082 63.1219 25.6961 62.8352 26.5971C62.5484 27.4984 62.0979 28.1537 61.4631 28.5838C60.8283 28.9934 59.968 29.2186 58.9031 29.2186C57.7971 29.2391 56.9369 29.0139 56.3021 28.6043C55.6674 28.1742 55.2166 27.5187 54.9506 26.6178C54.6842 25.7166 54.5613 24.5287 54.5613 23.0338V21.0061C54.5613 19.5109 54.7047 18.2822 55.0119 17.3811C55.3191 16.4596 55.79 15.8041 56.4455 15.3947C57.1008 14.985 57.9404 14.7598 58.985 14.7598M94.4971 9.14844V16.5211H94.5176C94.8043 15.9887 95.1729 15.5586 95.685 15.2309C96.1632 14.9095 96.7266 14.7384 97.3027 14.7395C98.0605 14.7395 98.634 14.9441 99.0641 15.3332C99.4941 15.743 99.8014 16.3777 99.9855 17.2584C100.164 18.1115 100.266 19.2914 100.272 20.7793L100.272 20.9244V23.1361C100.272 25.2045 100.006 26.7406 99.5145 27.7236C99.0027 28.7066 98.2244 29.1982 97.1594 29.1982C96.5656 29.1982 96.033 29.0549 95.5416 28.7887C95.1071 28.5352 94.7467 28.1721 94.4967 27.7355L94.4561 27.6621H94.3947L94.067 28.9934H91.466V9.14863L94.4971 9.14844ZM81.9633 9.86523V12.4045H78.8504V29.0137H75.7785V12.4047H72.6451V9.86543L81.9633 9.86523ZM48.192 9.86523L48.1939 9.87305C48.2238 10.0061 48.6379 11.8469 49.0934 13.9916L49.1293 14.1615L49.1836 14.4184L49.2199 14.5908L49.2381 14.6773L49.2744 14.8508L49.2926 14.9377L49.3287 15.1117L49.3814 15.3662C49.6891 16.8514 49.9826 18.3408 50.1582 19.4088H50.2402C50.4084 18.4508 50.6527 17.2248 50.9133 15.973L50.9816 15.6461C51.0159 15.4823 51.0504 15.3187 51.0852 15.1555L51.1387 14.9021C51.4925 13.2433 51.8569 11.5868 52.2318 9.93262L52.2377 9.90625L52.2471 9.86523H55.3805L51.7555 22.7881V28.9934H48.6631V22.8084H48.6426L45.0586 9.86504L48.192 9.86523ZM58.9234 16.9307C58.4934 16.9307 58.2066 17.1561 58.0225 17.6271C57.8383 18.0982 57.7563 18.8148 57.7563 19.8186V24.1807C57.7563 25.2047 57.8381 25.9623 58.002 26.4131C58.1659 26.8636 58.473 27.0889 58.9234 27.0889C59.3535 27.0889 59.6607 26.8636 59.8451 26.4131C60.0295 25.9623 60.1113 25.2047 60.1113 24.1807V19.8184C60.1113 18.8148 60.0293 18.0775 59.8451 17.627C59.6607 17.1561 59.3535 16.9307 58.9234 16.9307ZM95.05 17.3404C94.8004 17.5709 94.6229 17.8551 94.5172 18.2104L94.4971 18.2824V26.2285C94.751 26.6586 95.1115 26.9453 95.7463 26.9658C96.0739 26.9658 96.3402 26.843 96.5451 26.5973C96.7498 26.3516 96.8931 25.9419 96.975 25.3684C97.0538 24.818 97.0947 24.0599 97.0978 23.0941V21.1496C97.0978 20.0437 97.0568 19.2041 96.9955 18.6102C96.9135 18.0162 96.8113 17.5861 96.627 17.3404C96.2705 16.8283 95.5006 16.8346 95.05 17.3404ZM105.884 16.8693C105.536 16.8898 105.29 16.9922 105.146 17.1766C104.983 17.3812 104.88 17.6885 104.819 18.1391C104.759 18.5805 104.738 20.1234 104.737 20.1852V21.1906H107.031V20.3039V20.3209C107.029 20.6309 107.023 20.141 107.009 19.5396L107.007 19.4588C106.994 18.9303 106.975 18.341 106.949 18.1391C106.887 17.668 106.785 17.3402 106.621 17.1561C106.457 16.9717 106.212 16.8693 105.884 16.8693" fill="white"/>
</g>
<defs>
<clipPath id="clip0_19393_35940">
<rect width="100" height="22.6562" fill="white" transform="translate(10 8.26562)"/>
</clipPath>
</defs>
</svg>
